<?xml version="1.0" standalone="no"?>
<!DOCTYPE svg PUBLIC "-//W3C//DTD SVG 20010904//EN"
 "http://www.w3.org/TR/2001/REC-SVG-20010904/DTD/svg10.dtd">
<svg version="1.0" xmlns="http://www.w3.org/2000/svg"
 width="48" height="48" viewBox="0 0 336.000000 335.000000"
 preserveAspectRatio="xMidYMid meet">

<g transform="translate(0.000000,335.000000) scale(0.100000,-0.100000)"
fill="#000000" stroke="none">
<path d="M1626 3293 c-26 -21 -397 -353 -826 -738 l-779 -700 -1 -905 c0 -692
3 -909 12 -918 17 -17 3279 -17 3296 0 9 9 12 226 12 914 l0 903 -732 657
c-403 362 -774 696 -825 741 -51 46 -97 83 -102 83 -5 0 -30 -17 -55 -37z
m225 -1372 c256 -80 376 -381 254 -638 -151 -320 -574 -323 -733 -6 -112 222
-31 501 177 612 102 54 197 64 302 32z m516 -1013 c18 -24 265 -747 258 -758
-8 -12 -455 -14 -455 -1 0 4 23 118 50 251 28 134 49 245 47 247 -2 2 -242 2
-533 1 l-530 -3 47 -225 c26 -124 50 -237 53 -252 l6 -28 -230 0 c-212 0 -230
1 -230 18 0 26 252 746 264 754 6 4 288 8 627 8 482 0 619 -3 626 -12z"/>
</g>
</svg>
