<?xml version="1.0" standalone="no"?>
<!DOCTYPE svg PUBLIC "-//W3C//DTD SVG 20010904//EN"
 "http://www.w3.org/TR/2001/REC-SVG-20010904/DTD/svg10.dtd">
<svg version="1.0" xmlns="http://www.w3.org/2000/svg"
 width="48" height="48" viewBox="0 0 336.000000 335.000000"
 preserveAspectRatio="xMidYMid meet">

<g transform="translate(0.000000,335.000000) scale(0.100000,-0.100000)"
fill="#000000" stroke="none">
<path d="M1638 3303 c-56 -47 -1510 -1353 -1566 -1407 l-52 -50 0 -901 c0
-687 3 -904 12 -913 17 -17 3279 -17 3296 0 9 9 12 226 12 914 l0 902 -627
563 c-345 310 -717 644 -825 742 -109 97 -202 177 -207 177 -5 0 -24 -12 -43
-27z m265 -1402 c113 -55 179 -130 227 -256 31 -83 32 -224 1 -310 -44 -123
-121 -208 -237 -262 -52 -25 -71 -28 -159 -28 -93 0 -105 2 -167 33 -112 55
-209 178 -237 303 -6 24 -11 73 -11 109 0 201 115 365 305 433 77 28 198 18
278 -22z m464 -993 c5 -7 67 -178 138 -381 104 -301 125 -370 115 -382 -10
-12 -49 -15 -231 -15 -202 0 -219 1 -219 18 0 9 23 125 50 256 28 131 50 240
50 242 0 2 -238 4 -530 4 -422 0 -530 -3 -530 -13 0 -7 23 -122 50 -255 28
-133 50 -245 50 -247 0 -7 -426 -6 -444 1 -9 3 -16 15 -16 25 0 14 204 614
249 732 l11 27 624 0 c487 0 626 -3 633 -12z"/>
</g>
</svg>
