<svg width="48" height="48" viewBox="0 0 538 636" fill="none" xmlns="http://www.w3.org/2000/svg">
<path d="M277.873 2.10791L2.10025 223.849C0.830713 224.87 0.30705 226.559 0.776303 228.119L95.1021 541.695C95.6107 543.386 97.1673 544.543 98.9326 544.543H280.495H456.35C458.196 544.543 459.802 543.281 460.237 541.487L536.429 227.889C536.78 226.443 536.3 224.923 535.183 223.94L283.021 2.22125C281.561 0.937261 279.389 0.88943 277.873 2.10791Z" fill="#ADB6BF" stroke="#C5C5C5"/>
<ellipse cx="268.458" cy="340.705" rx="73.7527" ry="96.2949" fill="#6AB5A4"/>
<path d="M142.857 380.641C142.454 378.204 144.333 375.988 146.803 375.988H388.34C390.81 375.988 392.689 378.204 392.286 380.641L365.724 541.19C365.405 543.121 363.735 544.537 361.778 544.537H173.365C171.408 544.537 169.738 543.121 169.419 541.19L142.857 380.641Z" fill="#DDD400"/>
</svg>
