<svg width="24" height="24" viewBox="0 0 538 636" fill="none" xmlns="http://www.w3.org/2000/svg">
<path d="M277.873 2.10791L2.10025 223.849C0.830713 224.87 0.30705 226.559 0.776303 228.119L95.1021 541.695C95.6107 543.386 97.1673 544.543 98.9326 544.543H280.495H456.35C458.196 544.543 459.802 543.281 460.237 541.487L536.429 227.889C536.78 226.443 536.3 224.923 535.183 223.94L283.021 2.22125C281.561 0.937261 279.389 0.88943 277.873 2.10791Z" fill="#227ACA" stroke="#C5C5C5"/>
<ellipse cx="268.458" cy="340.704" rx="73.7527" ry="96.2949" fill="#6AB5A4"/>
<path d="M142.856 380.641C142.453 378.204 144.332 375.988 146.802 375.988H388.339C390.809 375.988 392.688 378.204 392.285 380.641L365.723 541.19C365.404 543.121 363.734 544.537 361.777 544.537H173.364C171.407 544.537 169.737 543.121 169.418 541.19L142.856 380.641Z" fill="#DDD400"/>
</svg>
